<svg id="Capa_1" enable-background="new 0 0 511.999 511.999" height="512" viewBox="0 0 511.999 511.999" width="512" xmlns="http://www.w3.org/2000/svg"><g><g><path d="m403.121 346.968-53.393-20.678v1.611c0 3.865-3.133 6.999-6.999 6.999h-20.009c-3.865 0-6.999-3.134-6.999-6.999v-14.78l-14.736-5.707c-.382-.148-.743-.331-1.088-.535l-43.985 45.443-44.053-45.536c-1.299.778-2.661 1.212-3.537 1.552l-13.081 5.071v14.474c0 3.875-3.142 7.017-7.017 7.017h-20.061c-3.875 0-7.017-3.142-7.017-7.017v-1.256l-52.469 20.342c-16.901 6.955-39.53 28.84-39.53 61.314v82.696c0 7.275 5.898 13.173 13.173 13.173h347.157c7.275 0 13.173-5.898 13.173-13.173v-82.696c0-27.968-17.905-52.415-39.529-61.315z" fill="#60b8fe"/><g><g><path d="m110.444 490.978v-100.696c0-25.683 14.154-44.734 28.435-55.023l-30.201 11.709c-16.901 6.955-39.53 28.84-39.53 61.314v82.696c0 7.275 5.898 13.173 13.173 13.173h41.297c-7.276 0-13.174-5.898-13.174-13.173z" fill="#23a8fe"/></g></g><path d="m211.86 306.785 44.053 45.536 43.985-45.443c-2.183-1.294-3.576-3.655-3.583-6.262l-.022-27.022c-11.323 7.409-24.838 11.735-39.351 11.735-16.004 0-30.05-4.437-41.503-11.845v27.088c0 3.288-1.725 5.104-3.579 6.213z" fill="#ffbd86"/><g><path d="m244.671 326.968v-42.552c-10.977-1.651-20.807-5.484-29.232-10.932v27.088c0 3.288-1.725 5.104-3.579 6.213l28.763 29.731c2.296-2.075 4.048-5.063 4.048-9.548z" fill="#f6a96c"/></g><path d="m356.089 170.571-.467-.547-.35.628c-4.992 8.954-14.76 12.632-26.128 9.842l-.619-.152v35.905c0 .413-.014.823-.028 1.233l-.031 1.092.453.053c1.306.153 2.609.229 3.904.229 7.828 0 15.331-2.761 21.033-7.834 6.063-5.395 9.541-12.966 9.541-20.775.001-7.166-2.595-14.153-7.308-19.674z" fill="#ffbd86"/><path d="m348.09 178.252c-5.122 3.162-11.706 4.019-18.947 2.242l-.619-.152v35.905c0 .413-.014.823-.028 1.233l-.031 1.092.453.053c1.306.153 2.609.229 3.904.229 5.406 0 10.657-1.318 15.267-3.805v-36.797z" fill="#f6a96c"/><path d="m183.3 217.525c-.014-.425-.028-.851-.028-1.278v-35.905l-.619.152c-11.285 2.768-20.706-.636-25.848-9.346l-.349-.591-.456.513c-4.902 5.524-7.601 12.333-7.601 19.173 0 7.81 3.479 15.384 9.543 20.779 5.7 5.071 13.199 7.83 21.027 7.83 1.295 0 2.6-.076 3.907-.229l.453-.053z" fill="#ffbd86"/><path d="m183.273 216.247v-1.32c-1.981-1.089-3.844-2.391-5.544-3.904-6.065-5.396-9.543-12.969-9.543-20.779 0-3.187.593-6.365 1.715-9.412-5.522-1.265-10.059-4.541-13.095-9.684l-.349-.591-.456.513c-4.902 5.524-7.601 12.333-7.601 19.173 0 7.81 3.479 15.384 9.543 20.779 5.7 5.071 13.199 7.83 21.027 7.83 1.295 0 2.6-.076 3.907-.229l.453-.053-.03-1.047c-.013-.423-.027-.849-.027-1.276z" fill="#f6a96c"/><path d="m329.144 180.495c-3.794-.932-7.772-2.557-11.826-4.832-30.088-16.884-61.099-17.729-61.43-17.736-.31.007-31.321.853-61.409 17.736-4.053 2.275-8.032 3.9-11.826 4.832l-.381.093v35.659c0 19.011 7.274 36.952 20.482 50.517 13.854 14.229 33.098 22.064 54.187 22.064 40.022 0 72.583-32.56 72.583-72.582v-35.659z" fill="#fed2a4"/><path d="m232.424 266.764c-13.208-13.565-20.482-31.506-20.482-50.517v-48.735c-5.7 2.185-11.597 4.859-17.462 8.15-4.053 2.275-8.032 3.9-11.826 4.832l-.381.093v35.659c0 19.011 7.274 36.952 20.482 50.517 13.854 14.229 33.098 22.064 54.187 22.064 4.912 0 9.709-.496 14.349-1.431-14.997-2.857-28.455-9.938-38.867-20.632z" fill="#ffbd86"/><path d="m356.564 145.117s-33.114-32.109-100.665-32.109-100.665 32.109-100.665 32.109c-9.164 23.127 8.246 48.514 39.49 30.981 30.327-17.018 61.175-17.673 61.175-17.673s30.848.655 61.175 17.673c31.244 17.533 48.653-7.854 39.49-30.981z" fill="#dfebfa"/><g><path d="m203.589 120.188s.009-.009.011-.011c-32.381 9.463-48.367 24.94-48.367 24.94-9.164 23.127 8.246 48.514 39.49 30.981 4.057-2.277 8.122-4.252 12.123-5.981-8.708-13.13-10.399-31.903-3.257-49.929z" fill="#b1dbfc"/></g><path d="m356.564 145.117v-21.439c0-50.716-41.113-91.829-91.829-91.829h-17.673c-50.716 0-91.829 41.113-91.829 91.829v21.439s33.114-30.109 100.665-30.109c67.552.001 100.666 30.109 100.666 30.109z" fill="#60b8fe"/><g><g><path d="m184.734 112.05c0-33.16 17.578-62.211 43.922-78.353-41.895 8.524-73.422 45.571-73.422 89.982v21.438s9.778-8.868 29.5-16.979z" fill="#23a8fe"/></g></g><path d="m247.062 34.85h17.673c3.402 0 6.76.191 10.066.552v-12.343c0-8.749-7.158-15.907-15.907-15.907h-5.991c-8.749 0-15.907 7.158-15.907 15.907v12.342c3.307-.36 6.664-.551 10.066-.551z" fill="#dfebfa"/><g><path d="m251.71 23.059c0-7.236 4.902-13.371 11.546-15.281-1.389-.399-2.849-.626-4.361-.626h-5.991c-8.749 0-15.907 7.158-15.907 15.907v12.342c3.307-.36 6.664-.552 10.066-.552h4.648v-11.79z" fill="#b1dbfc"/></g><path d="m350.937 409.51-190.232.008c-10.425.085-18.852 8.555-18.852 19v75.633h228.093v-75.633c-.001-10.498-8.511-19.008-19.009-19.008z" fill="#ffd301"/><path d="m160.705 409.518c-10.425.085-18.852 8.555-18.852 19v75.633h63v-75.633c0-10.445 8.427-18.915 18.852-19z" fill="#ffc20c"/><g fill="#23a8fe"><path d="m315.235 312.932-14.249-5.518c-.772-.298-1.463-.728-2.073-1.245l-41.895 43.154c-1.515 1.56-1.489 4.05.058 5.578l19.724 19.486c3.852 3.806 10.185 3.306 13.392-1.058l26.043-35.075z"/><path d="m212.833 306.116c-1.545 1.222-3.41 1.795-4.51 2.222l-12.639 4.9-1 23.822 26.921 36.271c3.207 4.364 9.54 4.864 13.392 1.058l19.724-19.486c1.547-1.528 1.573-4.018.058-5.578z"/><path d="m247.062 31.85c-5.843 0-11.557.552-17.098 1.596-15.491 17.59-26.123 50.445-26.849 88.414 14.336-3.973 31.91-6.851 52.783-6.851s38.447 2.878 52.783 6.851c-.725-37.968-11.358-70.824-26.849-88.413-5.54-1.044-11.254-1.596-17.098-1.596h-17.672z"/></g><g><path d="m251.71 31.85h-4.648c-5.844 0-11.557.552-17.098 1.595-15.491 17.59-26.123 50.446-26.849 88.414 9.268-2.569 19.899-4.673 31.891-5.845-1.451-34.483 4.87-64.821 16.704-84.164z" fill="#0193fa"/></g><path d="m322.434 429.763h20.581c3.976 0 7.199-3.223 7.199-7.199v-96.085l-34.979-13.547v109.632c0 3.976 3.223 7.199 7.199 7.199z" fill="#fee55a"/><path d="m332.725 422.564v-102.859l-17.49-6.773v109.632c0 3.976 3.223 7.199 7.199 7.199h17.49c-3.976 0-7.199-3.223-7.199-7.199z" fill="#ffd301"/><path d="m167.903 429.763h20.581c3.976 0 7.199-3.223 7.199-7.199v-109.327l-34.979 13.561v95.766c.001 3.976 3.223 7.199 7.199 7.199z" fill="#fee55a"/><path d="m178.194 422.564v-102.546l-17.49 6.78v95.766c0 3.976 3.223 7.199 7.199 7.199h17.49c-3.976 0-7.199-3.223-7.199-7.199z" fill="#ffd301"/></g><path d="m82.421 511.999h347.157c11.399 0 20.673-9.274 20.673-20.673v-26.215c0-4.142-3.357-7.5-7.5-7.5s-7.5 3.358-7.5 7.5v26.215c0 3.128-2.545 5.673-5.673 5.673h-52.032v-68.133c0-12.275-8.387-22.624-19.731-25.627v-65.465l42.623 16.507c17.313 7.162 34.813 28.11 34.813 54.349v21.48c0 4.142 3.357 7.5 7.5 7.5s7.5-3.358 7.5-7.5v-21.48c0-29.479-18.165-57.544-44.175-68.25-.049-.02-.097-.04-.146-.058l-102.015-39.508-.019-19.948c17.408-12.726 29.465-32.335 32.144-54.793 8.397-.655 16.345-3.939 22.568-9.476 7.556-6.721 11.889-16.2 11.889-26.005 0-7.199-2.123-14.247-6.047-20.283 2.885-7.876 2.891-17.175-.287-26.131v-20.152c0-48.454-34.876-88.908-80.841-97.596-.081-.015-.162-.034-.243-.047-.226-.042-.45-.089-.677-.13v-2.846c0-12.907-10.5-23.407-23.407-23.407h-5.991c-12.907 0-23.407 10.5-23.407 23.407v2.846c-.226.041-.45.088-.676.13-.087.013-.172.033-.258.05-45.959 8.694-80.829 49.145-80.829 97.594v20.153c-3.244 9.142-3.159 18.636-.093 26.615-4.051 5.983-6.241 12.859-6.241 19.799 0 9.807 4.334 19.287 11.891 26.009 6.221 5.534 14.165 8.816 22.561 9.471 2.041 17.277 9.62 33.322 21.888 45.922 3.155 3.24 6.575 6.159 10.199 8.78l.001 19.973c-.425.237-101.519 39.399-101.973 39.575-.048.019-.096.038-.144.057-21.276 8.756-44.176 33.848-44.176 68.25v82.696c.001 11.398 9.274 20.672 20.674 20.672zm240.415-187.771 19.979 7.737v90.646h-19.979zm-15-5.81v18.725l-23.587 32.093c-.498.68-1.478.756-2.077.164l-17.229-17.021 35.681-36.754zm-84.796-29.13c10.423 4.501 21.937 6.888 34.003 6.888 11.326 0 22.099-2.395 31.862-6.678l.011 11.485c.004 1.547.243 3.046.688 4.459l-33.604 34.616-33.605-34.616c.425-1.398.646-2.903.646-4.522zm132.458-98.695c0 5.608-2.436 10.863-6.858 14.798-3.332 2.964-7.518 4.86-12.015 5.533v-21.119c8.402-.033 14.356-3.189 17.839-5.789.667 2.123 1.034 4.336 1.034 6.577zm-6.334-66.566v7.017c-7.567-4.541-18.562-10.031-33.065-14.534-1.166-26.43-6.986-50.725-16.326-69.203 29.106 13.307 49.391 42.68 49.391 76.72zm-104.567-100.62c0-4.636 3.771-8.407 8.407-8.407h5.991c4.636 0 8.407 3.771 8.407 8.407v1.324c-.853-.022-1.708-.033-2.566-.033h-17.673c-.858 0-1.713.011-2.566.033zm-10.553 17.317c4.277-.671 8.657-1.026 13.119-1.026h17.673c4.462 0 8.842.355 13.119 1.026 12.438 15.502 20.884 42.142 22.9 71.782-12.876-2.801-27.81-4.65-44.855-4.65s-31.978 1.848-44.854 4.649c2.014-29.639 10.46-56.278 22.898-71.781zm-71.21 83.303c0-34.04 20.286-63.413 49.393-76.721-9.34 18.478-15.16 42.773-16.326 69.203-14.504 4.504-25.5 9.993-33.066 14.534v-7.016zm12.539 86.898c-4.5-.672-8.681-2.567-12.013-5.53-4.424-3.936-6.86-9.192-6.86-14.802 0-2.177.416-4.358 1.172-6.472 3.501 2.578 9.415 5.643 17.701 5.677zm-9.56-39.484c-5.2-4.545-6.797-13.2-4.116-21.515 6.565-5.182 37.669-27.07 94.302-27.07 56.239 0 87.669 21.912 94.309 27.091 2.671 8.308 1.074 16.952-4.122 21.493-5.615 4.91-14.852 4.352-25.342-1.535-31.6-17.732-63.35-18.602-64.686-18.63-.053-.001-.106-.001-.159-.001s-.106 0-.159.001c-1.336.028-33.086.898-64.685 18.63-10.49 5.887-19.727 6.445-25.342 1.536zm24.604 46.972c0-.035-.002-.07-.002-.105-.016-.571-.042-1.142-.042-1.713v-29.763c2.573-.988 5.28-2.25 8.122-3.845 27.115-15.216 55.126-16.617 57.502-16.709 2.43.094 30.414 1.506 57.507 16.709 2.842 1.595 5.548 2.86 8.121 3.848v29.76c0 .58-.029 1.152-.044 1.728 0 .026-.001.052-.002.079-.605 21.858-12.113 41.028-29.279 52.26-.046.03-.093.058-.139.089-10.117 6.583-22.175 10.426-35.119 10.426-40.936 0-65.694-31.595-66.625-62.764zm12.867 100.309 7.851-3.043.214-.08 35.707 36.781-17.23 17.02c-.599.593-1.579.516-2.077-.164l-24.465-33.289zm-34.979 13.561 19.979-7.746v98.074h-19.979zm-.301 105.328h20.581c8.105 0 14.699-6.594 14.699-14.699v-5.554h35.215c4.143 0 7.5-3.358 7.5-7.5s-3.357-7.5-7.5-7.5h-35.215v-41.08l12.377 16.841c5.908 8.038 17.593 8.982 24.707 1.952l15.632-15.442 15.63 15.441c7.109 7.027 18.797 6.091 24.706-1.951l11.5-15.648v39.886h-34.337c-4.143 0-7.5 3.358-7.5 7.5s3.357 7.5 7.5 7.5h34.337v5.554c0 8.105 6.594 14.699 14.699 14.699h20.581c8.104 0 14.698-6.594 14.698-14.699v-3.326c2.862 2.095 4.731 5.47 4.731 9.28v68.133h-213.092v-68.133c0-3.39 1.495-6.442 3.852-8.553v2.599c0 8.106 6.593 14.7 14.699 14.7zm-91.256-28.981c0-29.317 20.796-48.546 34.817-54.351l41.739-16.182v65.407c-10.884 3.305-18.852 13.45-18.852 25.361v68.133h-52.031c-3.128 0-5.673-2.545-5.673-5.673z"/></g></svg>