<svg id="Capa_1" enable-background="new 0 0 512 512" height="512" viewBox="0 0 512 512" width="512" xmlns="http://www.w3.org/2000/svg"><g><path d="m407.666 350.073-55.005-21.302v1.659c0 3.982-3.228 7.21-7.21 7.21h-20.613c-3.982 0-7.21-3.228-7.21-7.21v-15.226l-15.18-5.879c-.394-.152-.765-.341-1.12-.552l-45.313 46.815-45.383-46.911c-1.338.802-2.741 1.249-3.644 1.599v-.001l-13.476 5.224v14.911c0 3.992-3.236 7.229-7.229 7.229h-20.667c-3.992 0-7.229-3.237-7.229-7.229v-1.294l-54.052 20.956c-17.411 7.165-40.723 29.71-40.723 63.165v85.192c0 7.494 6.076 13.57 13.57 13.57h357.635c7.495 0 13.57-6.076 13.57-13.57v-85.192c.001-28.81-18.445-53.996-40.721-63.164z" fill="#60b8fe"/><g><g><path d="m106.155 498.43v-103.736c0-26.458 14.582-46.084 29.293-56.683l-31.113 12.062c-17.411 7.165-40.723 29.71-40.723 63.165v85.192c0 7.494 6.076 13.57 13.57 13.57h42.543c-7.494 0-13.57-6.076-13.57-13.57z" fill="#23a8fe"/></g></g><path d="m210.632 308.677 45.383 46.911 45.313-46.815c-2.249-1.333-3.684-3.765-3.692-6.451l-.023-27.838c-11.665 7.633-25.588 12.089-40.539 12.089-16.487 0-30.957-4.571-42.756-12.202v27.906c.001 3.387-1.777 5.257-3.686 6.4z" fill="#ffbd86"/><g><path d="m244.433 329.469v-43.836c-11.308-1.701-21.435-5.649-30.114-11.262v27.906c0 3.388-1.777 5.258-3.687 6.401l29.631 30.628c2.365-2.138 4.17-5.217 4.17-9.837z" fill="#f6a96c"/></g><path d="m359.214 168.352-.481-.563-.361.647c-5.142 9.224-15.206 13.013-26.917 10.139l-.638-.157v36.988c0 .426-.014.848-.029 1.27l-.032 1.125.467.055c1.346.158 2.688.235 4.022.235 8.064 0 15.793-2.845 21.668-8.071 6.246-5.557 9.829-13.358 9.829-21.402.002-7.381-2.672-14.578-7.528-20.266z" fill="#ffbd86"/><path d="m350.974 176.265c-5.276 3.258-12.06 4.14-19.518 2.31l-.638-.157v36.988c0 .426-.014.848-.029 1.27l-.032 1.125.467.055c1.346.158 2.688.235 4.022.235 5.569 0 10.978-1.358 15.728-3.92z" fill="#f6a96c"/><path d="m181.21 216.723c-.014-.438-.028-.877-.028-1.316v-36.988l-.638.157c-11.626 2.852-21.331-.655-26.629-9.628l-.36-.609-.469.529c-5.05 5.691-7.83 12.705-7.83 19.752 0 8.046 3.584 15.848 9.831 21.406 5.872 5.224 13.597 8.066 21.662 8.066 1.334 0 2.679-.078 4.025-.236l.467-.055z" fill="#ffbd86"/><path d="m181.182 215.406v-1.359c-2.041-1.122-3.96-2.463-5.712-4.021-6.248-5.558-9.831-13.361-9.831-21.406 0-3.283.611-6.558 1.767-9.696-5.689-1.303-10.362-4.678-13.49-9.976l-.36-.609-.469.529c-5.05 5.691-7.83 12.705-7.83 19.752 0 8.046 3.584 15.848 9.831 21.406 5.872 5.224 13.597 8.066 21.662 8.066 1.334 0 2.679-.078 4.025-.236l.467-.055-.03-1.078c-.016-.438-.03-.877-.03-1.317z" fill="#f6a96c"/><path d="m331.456 178.575c-3.908-.96-8.007-2.634-12.183-4.978-30.996-17.393-62.943-18.265-63.284-18.272-.319.007-32.266.878-63.262 18.272-4.176 2.344-8.275 4.018-12.183 4.978l-.392.096v36.735c0 19.585 7.494 38.067 21.101 52.042 14.272 14.658 34.097 22.73 55.822 22.73 41.23 0 74.774-33.543 74.774-74.772v-36.735z" fill="#fed2a4"/><path d="m231.816 267.448c-13.607-13.975-21.101-32.457-21.101-52.042v-50.206c-5.872 2.251-11.947 5.006-17.989 8.396-4.176 2.344-8.275 4.018-12.183 4.978l-.392.096v36.735c0 19.585 7.494 38.067 21.101 52.042 14.272 14.658 34.097 22.73 55.822 22.73 5.06 0 10.002-.511 14.782-1.474-15.449-2.943-29.313-10.238-40.04-21.255z" fill="#ffbd86"/><path d="m359.703 142.13s-34.113-33.078-103.704-33.078c-69.59 0-103.703 33.078-103.703 33.078-9.44 23.825 8.495 49.978 40.682 31.917 31.243-17.532 63.022-18.207 63.022-18.207s31.779.674 63.021 18.206c32.187 18.062 50.123-8.091 40.682-31.916z" fill="#dfebfa"/><g><path d="m202.112 116.448s.01-.01.012-.012c-33.358 9.749-49.827 25.693-49.827 25.693-9.44 23.825 8.495 49.978 40.682 31.917 4.18-2.346 8.367-4.381 12.488-6.161-8.972-13.528-10.714-32.867-3.355-51.437z" fill="#b1dbfc"/></g><path d="m359.703 142.13v-22.086c0-52.246-42.354-94.6-94.601-94.6h-18.206c-52.246 0-94.6 42.354-94.6 94.6v22.086s34.113-31.017 103.703-31.017c69.591-.001 103.704 31.017 103.704 31.017z" fill="#60b8fe"/><g><g><path d="m182.687 108.064c0-34.161 18.108-64.089 45.248-80.718-43.159 8.781-75.638 46.946-75.638 92.698v22.086s10.073-9.136 30.39-17.491z" fill="#23a8fe"/></g></g><path d="m246.897 28.534h18.206c3.505 0 6.964.197 10.37.568v-12.715c0-9.013-7.374-16.387-16.387-16.387h-6.172c-9.013 0-16.387 7.374-16.387 16.387v12.715c3.406-.371 6.865-.568 10.37-.568z" fill="#dfebfa"/><g><path d="m251.685 16.387c0-7.455 5.05-13.775 11.894-15.742-1.431-.411-2.935-.645-4.493-.645h-6.172c-9.013 0-16.387 7.374-16.387 16.387v12.715c3.406-.371 6.865-.568 10.37-.568h4.788z" fill="#b1dbfc"/></g><path d="m353.906 414.502-195.974.008c-10.74.088-19.421 8.813-19.421 19.574v77.916h234.977v-77.915c.001-10.816-8.766-19.583-19.582-19.583z" fill="#ffd301"/><path d="m157.932 414.511c-10.74.088-19.421 8.813-19.421 19.574v77.915h64.902v-77.915c0-10.761 8.681-19.486 19.421-19.574z" fill="#ffc20c"/><g fill="#23a8fe"><path d="m317.127 315.009-14.679-5.685c-.795-.307-1.507-.75-2.136-1.282l-43.16 44.457c-1.56 1.607-1.534 4.172.06 5.747l20.319 20.074c3.969 3.921 10.493 3.406 13.797-1.09l26.829-36.134z"/><path d="m211.634 307.987c-1.592 1.259-3.512 1.849-4.646 2.289l-13.021 5.048-1.03 24.541 27.734 37.366c3.304 4.496 9.828 5.011 13.797 1.09l20.319-20.074c1.594-1.574 1.62-4.139.06-5.747z"/><path d="m246.897 25.444c-6.02 0-11.906.569-17.614 1.644-15.958 18.121-26.912 51.968-27.659 91.082 14.768-4.093 32.874-7.057 54.376-7.057 21.503 0 39.608 2.965 54.376 7.057-.747-39.114-11.701-72.962-27.659-91.082-5.708-1.075-11.594-1.644-17.614-1.644z"/></g><g><path d="m251.685 25.444h-4.788c-6.02 0-11.906.569-17.614 1.644-15.959 18.121-26.912 51.968-27.659 91.082 9.548-2.646 20.5-4.814 32.853-6.021-1.496-35.525 5.017-66.778 17.208-86.705z" fill="#0193fa"/></g><path d="m324.544 435.367h21.202c4.096 0 7.416-3.32 7.416-7.416v-98.986l-36.035-13.955v112.941c0 4.095 3.321 7.416 7.417 7.416z" fill="#fee55a"/><path d="m335.145 427.951v-105.964l-18.017-6.978v112.941c0 4.096 3.32 7.416 7.416 7.416h18.017c-4.096.001-7.416-3.32-7.416-7.415z" fill="#ffd301"/><path d="m165.348 435.367h21.202c4.096 0 7.416-3.32 7.416-7.416v-112.627l-36.035 13.97v98.656c.001 4.096 3.322 7.417 7.417 7.417z" fill="#fee55a"/><path d="m175.95 427.951v-105.642l-18.017 6.985v98.657c0 4.096 3.32 7.416 7.416 7.416h18.018c-4.097 0-7.417-3.321-7.417-7.416z" fill="#ffd301"/></g></svg>